<svg viewBox="0 0 512 512" xmlns="http://www.w3.org/2000/svg"><path d="M325.998 431h-140a14 14 0 1 0 0 28h30.444a41.945 41.945 0 0 0 79.118 0h30.438a14 14 0 0 0 0-28ZM325.998 389h-140a14 14 0 1 0 0 28h140a14 14 0 0 0 0-28ZM346.687 289.637a113.084 113.084 0 1 0-181.369 0l42.7 57.33.04.033h-22.06a14 14 0 0 0 0 28h140a14 14 0 1 0 0-28H303.94l.049-.033ZM270.017 347h-28.089l.04-.033v-84h-21a14 14 0 0 1 0-28h70a14 14 0 1 1 0 28h-21v84ZM421.572 301.528l-24.25-14a14 14 0 1 0-14 24.247l24.25 14a14 14 0 1 0 14-24.247ZM390.335 158.554a13.914 13.914 0 0 0 6.986-1.88l24.25-14a14 14 0 1 0-14-24.247l-24.25 14a14.002 14.002 0 0 0 7.014 26.127ZM255.998 81a14 14 0 0 0 14-14V39a14 14 0 1 0-28 0v28a14 14 0 0 0 14 14ZM128.679 132.427l-24.25-14a14 14 0 1 0-14 24.247l24.25 14a14 14 0 0 0 14-24.247ZM114.679 287.528l-24.25 14a14 14 0 1 0 14 24.247l24.25-14a14 14 0 0 0-14-24.247Z" fill="#ff6b00" class="fill-000000"></path></svg>